<?xml version="1.0" encoding="utf-8"?>
<!-- Generator: Adobe Illustrator 16.0.0, SVG Export Plug-In . SVG Version: 6.00 Build 0)  -->
<!DOCTYPE svg PUBLIC "-//W3C//DTD SVG 1.1//EN" "http://www.w3.org/Graphics/SVG/1.1/DTD/svg11.dtd">
<svg version="1.1" id="Layer_1" xmlns="http://www.w3.org/2000/svg" xmlns:xlink="http://www.w3.org/1999/xlink" x="0px" y="0px"
	 width="500px" height="500px" viewBox="0 0 500 500" enable-background="new 0 0 500 500" xml:space="preserve">
<path fill="#676767" d="M223.242,297.793c0,13.072-10.601,23.678-23.676,23.678c-13.082,0-23.685-10.605-23.685-23.678
	c0-13.078,10.603-23.678,23.685-23.678C212.641,274.115,223.242,284.715,223.242,297.793z"/>
<path fill="#676767" d="M323.314,297.793c0,13.072-10.605,23.678-23.678,23.678c-13.082,0-23.685-10.605-23.685-23.678
	c0-13.078,10.603-23.678,23.685-23.678C312.709,274.115,323.314,284.715,323.314,297.793z"/>
<g>
	<g>
		<path fill="#676767" d="M402.14,260.529c-0.431-2.104-7.297-4.188-7.805-6.257c-16.008-64.714-74.457-112.684-144.113-112.684
			c-69.824,0-128.393,48.215-144.224,113.165c-0.398,1.632-7.164,3.27-7.509,4.921c-2.035,9.803-3.107,19.958-3.107,30.353
			c0,9.365,0.864,18.503,2.517,27.374c0.26,1.375,6.893,2.763,7.225,4.114c15.658,63.326,77.072,116.964,145.1,116.964
			c71.737,0,131.594-50.883,145.431-118.531c0.257-1.259,6.898-2.511,7.123-3.783c1.504-8.489,2.287-17.216,2.287-26.138
			C405.062,279.929,404.054,270.059,402.14,260.529z M250.222,185.272c8.129,0,14.714,6.587,14.714,14.713
			c0,8.128-6.585,14.714-14.714,14.714c-8.126,0-14.713-6.586-14.713-14.714C235.508,191.859,242.096,185.272,250.222,185.272z
			 M250.488,367.208c-50.606,0-111.6-46.944-111.6-55.421l3.252-43.505c0-8.488,6.875-15.358,15.356-15.358l93.64-11.518
			l91.814,11.518c8.479,0,15.354,6.87,15.354,15.358l3.25,43.505C361.555,320.264,301.088,367.208,250.488,367.208z"/>
	</g>
</g>
<path fill="#676767" d="M222.311,61.918c0,0,16.896,9.688,24.184,27.264c7.289,17.57,2.21,36.374,2.21,36.374
	s-16.893-9.69-24.181-27.264C217.232,80.718,222.311,61.918,222.311,61.918z"/>
</svg>
